<?xml version="1.0" standalone="no"?>
<!DOCTYPE svg PUBLIC "-//W3C//DTD SVG 20010904//EN"
 "http://www.w3.org/TR/2001/REC-SVG-20010904/DTD/svg10.dtd">
<svg version="1.0" xmlns="http://www.w3.org/2000/svg"
 width="256.000000pt" height="256.000000pt" viewBox="0 0 256.000000 256.000000"
 preserveAspectRatio="xMidYMid meet">

<g transform="translate(0.000000,256.000000) scale(0.100000,-0.100000)"
fill="#000000" stroke="none">
<path d="M700 2285 c-311 -150 -577 -280 -592 -289 l-28 -15 0 -699 c0 -548 3
-702 12 -710 17 -13 1177 -572 1189 -572 11 0 1170 559 1187 572 9 8 12 162
12 708 0 546 -3 700 -12 708 -21 17 -1178 572 -1191 571 -7 0 -266 -123 -577
-274z m1113 -61 c293 -141 534 -258 536 -260 2 -2 -65 -37 -149 -78 l-154 -75
-45 23 c-25 12 -265 128 -533 257 -268 129 -488 237 -488 240 0 4 282 145 298
148 2 1 243 -114 535 -255z m-341 -220 c263 -126 478 -232 478 -235 0 -8 -196
-99 -212 -99 -10 0 -224 102 -898 428 l-175 85 110 52 110 52 55 -27 c30 -14
270 -129 532 -256z m-335 -133 l558 -269 5 -234 c3 -128 9 -239 13 -245 5 -7
15 -13 23 -13 21 0 307 138 316 153 4 6 8 116 8 242 l0 230 170 82 170 81 -2
-640 -3 -641 -505 -244 c-278 -134 -520 -250 -537 -258 l-33 -14 0 637 0 637
135 68 c75 37 138 74 141 82 8 20 -13 45 -37 45 -11 0 -78 -29 -149 -65 l-130
-65 -60 30 c-59 30 -84 31 -94 4 -10 -26 11 -50 64 -73 l50 -22 0 -639 0 -639
-62 29 c-35 16 -277 132 -538 258 l-475 230 -3 640 -2 641 197 -95 c109 -53
295 -143 414 -200 119 -57 223 -104 231 -104 22 0 41 27 34 46 -5 14 -210 117
-676 341 l-155 74 180 89 c99 48 183 89 187 89 4 1 258 -120 565 -268z m843
-374 l0 -192 -95 -48 c-52 -26 -97 -47 -100 -47 -3 0 -5 88 -5 196 l0 195 93
44 c50 24 95 44 100 44 4 1 7 -86 7 -192z"/>
<path d="M250 1015 c-6 -8 -9 -22 -6 -32 7 -22 345 -187 372 -181 12 2 20 13
22 31 3 27 -3 31 -173 112 -97 47 -182 85 -189 85 -8 0 -19 -7 -26 -15z"/>
<path d="M245 830 c-9 -30 -2 -36 96 -85 96 -49 124 -54 137 -27 16 30 2 42
-91 88 -100 49 -132 54 -142 24z"/>
</g>
</svg>
