<?xml version="1.0" standalone="no"?>
<!DOCTYPE svg PUBLIC "-//W3C//DTD SVG 20010904//EN"
 "http://www.w3.org/TR/2001/REC-SVG-20010904/DTD/svg10.dtd">
<svg version="1.0" xmlns="http://www.w3.org/2000/svg"
 width="256.000000pt" height="256.000000pt" viewBox="0 0 256.000000 256.000000"
 preserveAspectRatio="xMidYMid meet">

<g transform="translate(0.000000,256.000000) scale(0.100000,-0.100000)"
fill="#000000" stroke="none">
<path d="M77 2128 c-23 -14 -45 -38 -57 -63 -19 -40 -20 -63 -20 -785 0 -723
1 -745 20 -785 13 -26 34 -49 59 -63 l39 -22 1162 0 1162 0 38 21 c21 12 47
38 59 59 21 37 21 42 21 786 0 727 -1 749 -20 789 -13 26 -34 49 -59 63 l-39
22 -1163 0 -1164 0 -38 -22z m2363 -98 c18 -18 20 -33 20 -155 l0 -135 -1180
0 -1180 0 0 135 c0 122 2 137 20 155 20 20 33 20 1160 20 1127 0 1140 0 1160
-20z m20 -1040 c0 -427 -1 -441 -20 -460 -20 -20 -33 -20 -1160 -20 -1127 0
-1140 0 -1160 20 -19 19 -20 33 -20 460 l0 440 1180 0 1180 0 0 -440z"/>
<path d="M432 1114 c-31 -21 -26 -64 8 -81 19 -10 136 -13 485 -13 501 0 505
0 505 55 0 55 -4 55 -510 55 -410 0 -468 -2 -488 -16z"/>
<path d="M426 904 c-9 -8 -16 -24 -16 -34 0 -10 7 -26 16 -34 13 -14 54 -16
293 -16 296 0 301 1 301 50 0 49 -5 50 -301 50 -239 0 -280 -2 -293 -16z"/>
</g>
</svg>
