<?xml version="1.0" standalone="no"?>
<!DOCTYPE svg PUBLIC "-//W3C//DTD SVG 20010904//EN"
 "http://www.w3.org/TR/2001/REC-SVG-20010904/DTD/svg10.dtd">
<svg version="1.0" xmlns="http://www.w3.org/2000/svg"
 width="512.000000pt" height="512.000000pt" viewBox="0 0 512.000000 512.000000"
 preserveAspectRatio="xMidYMid meet">

<g transform="translate(0.000000,512.000000) scale(0.100000,-0.100000)"
fill="#000000" stroke="none">
<path d="M1140 4665 c-575 -91 -1000 -506 -1116 -1090 -27 -135 -25 -405 4
-542 54 -250 175 -488 378 -743 102 -128 436 -457 644 -635 102 -86 324 -268
494 -404 170 -135 468 -373 662 -528 l354 -283 478 380 c634 506 880 704 1058
857 180 154 525 496 618 613 207 260 331 509 383 767 26 132 24 404 -5 540
-118 552 -510 945 -1057 1059 -125 26 -414 27 -533 1 -353 -77 -653 -291 -874
-622 -33 -49 -64 -90 -68 -90 -4 0 -35 41 -68 90 -208 309 -496 526 -805 605
-165 42 -378 51 -547 25z"/>
</g>
</svg>
