<svg version="1.0" xmlns="http://www.w3.org/2000/svg" width="1770.667" height="1768" viewBox="0 0 1328 1326"><path d="M636.5 1c-2.7.5-7.1.9-9.7.9-2.7.1-4.8.5-4.8 1.1 0 .6-3.1 1-7.4 1-4.6 0-7.6.4-7.8 1.1-.2.6-2.7 1.4-5.6 1.7-2.9.2-5.2.8-5.2 1.2 0 .4-2.1 1-4.7 1.3-2.6.3-4.9 1-5.1 1.6-.2.6-2.1 1.1-4.3 1.1-2.1 0-3.9.4-3.9.9s-1.6 1.2-3.5 1.5c-1.9.4-3.5 1.1-3.5 1.6 0 .6-1.8 1-4 1-2.9 0-4 .4-4 1.5s-1.1 1.5-4 1.5c-2.2 0-4 .4-4 .9s-1.1 1.2-2.5 1.5c-1.4.4-2.5 1.1-2.5 1.6 0 .6-1.1 1-2.5 1s-2.5.4-2.5.9-1.1 1.2-2.5 1.5c-1.4.4-2.5 1.1-2.5 1.6 0 .6-1.3 1-3 1-2 0-3 .5-3 1.5 0 .9-.9 1.5-2.5 1.5-1.4 0-2.5.4-2.5.9s-1.1 1.2-2.5 1.5c-1.4.4-2.5 1.1-2.5 1.6 0 .6-.7 1-1.5 1s-1.5.4-1.5 1c0 .5-1.1 1.2-2.5 1.6-1.4.3-2.5 1-2.5 1.5s-1.1.9-2.5.9c-1.6 0-2.5.6-2.5 1.5 0 .8-.7 1.5-1.5 1.5s-1.5.4-1.5 1c0 .5-.8 1-1.9 1-1 0-2.7 1.1-3.7 2.5S500 53 499.3 53c-.7 0-1.3.7-1.3 1.5 0 .9-.9 1.5-2.5 1.5s-2.5.6-2.5 1.5c0 .8-.7 1.5-1.5 1.5s-1.5.4-1.5 1c0 .5-.5 1-1.1 1-.6 0-1.7.6-2.4 1.2-3.3 3-4.5 3.8-5.5 3.8-.5 0-1 .7-1 1.5s-.7 1.5-1.5 1.5-1.5.5-1.5 1.1c0 1.4-2.5 3.9-3.9 3.9-.6 0-1.1.7-1.1 1.5s-.5 1.5-1.1 1.5c-1.4 0-3.9 2.5-3.9 3.9 0 .6-.5 1.1-1.1 1.1-1.4 0-6.9 5.5-6.9 6.9 0 .6-.5 1.1-1.1 1.1-1.4 0-3.9 2.5-3.9 3.9 0 .6-.7 1.1-1.5 1.1s-1.5.5-1.5 1.1c0 1.4-2.5 3.9-3.9 3.9-.6 0-1.1.5-1.1 1.1 0 .6-.6 1.7-1.2 2.4-2.7 3-3.8 4.4-3.8 5 0 .3-1.1 1.6-2.4 2.8-1.3 1.2-2.6 3.2-3 4.4-.4 1.3-1.2 2.3-1.7 2.3s-.9.5-.9 1.1c0 .7-1.1 2.2-2.5 3.5-1.4 1.3-2.5 3-2.5 3.7 0 .8-.7 1.7-1.5 2.1-.8.3-1.5 1.2-1.5 2.1 0 .8-.4 1.5-1 1.5-.5 0-1 .9-1 2s-.7 2.3-1.5 2.6c-.8.4-1.5 1.5-1.5 2.5s-.4 1.9-1 1.9c-.5 0-1 .7-1 1.5 0 .9-.7 1.8-1.5 2.1-.8.4-1.5 1.5-1.5 2.5s-.4 1.9-.9 1.9-1.2 1.3-1.6 3c-.4 1.6-1.1 3-1.6 3s-.9.9-.9 2-.7 2.3-1.5 2.6c-.8.4-1.5 1.7-1.5 3s-.4 2.4-1 2.4c-.5 0-1 1.1-1 2.5 0 1.6-.6 2.5-1.5 2.5s-1.5 1-1.5 2.6c0 1.4-.7 3.2-1.5 4-.8.9-1.5 2.6-1.5 4 0 1.3-.4 2.4-1 2.4-.5 0-1 1.8-1 4 0 2.9-.4 4-1.5 4-1 0-1.5 1.1-1.5 3.5 0 1.9-.4 3.5-1 3.5-.5 0-1 1.3-1 2.9 0 1.6-.7 3.6-1.5 4.5-.9.9-1.5 3.4-1.5 6.5 0 2.8-.4 5.1-.9 5.1s-1.2 2.2-1.6 5c-.4 2.7-1.1 5-1.6 5s-.9 2.6-.9 5.9c0 3.2-.7 7.5-1.5 9.4-.9 2.2-1.5 6.7-1.5 11.2 0 4.3-.4 7.5-1 7.5s-1 13.8-1 39.2c0 21.6-.3 40.3-.6 41.5l-.6 2.3h-99.4c-64.3 0-99.4.3-99.4 1 0 .5-1.1 1.2-2.5 1.6-1.4.3-2.5 1-2.5 1.5s-.7.9-1.5.9-1.5.5-1.5 1.1c0 1.4-2.5 3.9-3.9 3.9-.6 0-1.1.5-1.1 1.1 0 .6-.7 1.7-1.5 2.5-.8.9-1.5 2.6-1.5 4 0 1.3-.4 2.4-1 2.4-.5 0-1 1.7-1 3.7 0 2.1-.7 6.5-1.5 9.8-.8 3.3-1.4 9.9-1.5 14.7 0 4.9-.4 8.8-.8 8.8-.5 0-1.2 5.7-1.5 12.7-.4 7.5-1 12.9-1.6 13.1-.7.2-1.1 4.7-1.1 11.7 0 6.8-.4 11.5-1 11.7-.6.2-1.3 5.5-1.7 12.1-.3 6.4-1 11.7-1.5 11.7-.4 0-.8 4.9-.8 10.9 0 7.4-.5 12-1.5 14.4-1 2.4-1.5 7-1.5 13.7 0 5.5-.4 10-.8 10-.5 0-1.2 5.3-1.5 11.7-.4 6.6-1.1 11.9-1.7 12.1-.6.2-1 5.2-1 12.8 0 6.8-.4 12.4-.9 12.4s-1.2 5.2-1.6 11.5c-.4 6.3-1.1 11.5-1.6 11.5s-.9 5.1-.9 11.3c0 7.4-.4 11.7-1.2 12.5-.7.7-1.4 5.8-1.6 13.2-.3 6.6-.8 12-1.2 12-.4 0-1 5.3-1.3 11.7-.4 6.4-1.1 12.1-1.7 12.7-.6.6-1 5.9-1 12.3 0 6.2-.4 11.3-.9 11.3s-1.2 5.2-1.6 11.5c-.4 6.3-1.1 11.5-1.6 11.5s-.9 4.9-.9 10.9c0 7.1-.5 12.3-1.5 15.1-.9 2.6-1.5 7.8-1.5 13.6 0 5.6-.4 9.4-1 9.4s-1 4-1 10c0 6.7-.5 11.3-1.5 13.7-1 2.4-1.5 7-1.5 14.4 0 6-.4 10.9-.9 10.9s-1.2 5.4-1.6 12c-.4 6.6-1.1 12-1.6 12s-.9 5.1-.9 11.3c0 6.8-.4 11.7-1.1 12.4-.6.6-1.3 6.5-1.6 13.2-.3 6.7-1 12.1-1.4 12.1-.5 0-.9 4-.9 8.8 0 5-.7 11-1.5 13.8-.9 2.9-1.5 8.9-1.5 14.6 0 5.4-.4 9.8-.9 9.8s-1.2 5.6-1.6 12.5c-.4 6.9-1.1 12.5-1.6 12.5s-.9 5.4-.9 11.9c0 7.3-.4 12.1-1 12.3-.6.2-1.3 5.5-1.7 12.1-.3 6.4-.9 11.7-1.3 11.7s-.9 5.4-1.2 12c-.2 7.4-.9 12.5-1.6 13.2-.8.8-1.2 5.1-1.2 12.5 0 6.2-.4 11.3-.9 11.3-.4 0-1.1 5.1-1.4 11.2-.3 6.5-1 11.4-1.6 11.6-.7.2-1.1 4.9-1.1 12.7 0 8.2-.4 12.5-1.1 12.7-.7.2-1.3 4.7-1.7 12.1-.2 6.4-.9 11.7-1.3 11.7-.5 0-.9 4.3-.9 9.5 0 5.1-.7 12-1.5 15.2-.8 3.1-1.5 9.9-1.5 15s-.4 9.3-.8 9.3c-.5 0-1.2 5.3-1.5 11.7-.4 6.6-1.1 11.9-1.7 12.1-.6.2-1 4.9-1 11.7 0 6.8-.4 11.5-1 11.7-.6.2-1.3 5.5-1.7 12.1-.3 6.4-1 11.7-1.5 11.7-.4 0-.8 4.9-.8 10.9 0 7.4-.5 12-1.5 14.4-1 2.5-1.5 7.1-1.5 14.7 0 6.7-.4 11-1 11-.5 0-1 .7-1 1.5s.5 1.5 1 1.5c.6 0 1 1.8 1 4 0 2.9.4 4 1.5 4 .9 0 1.5.9 1.5 2.5 0 1.4.5 2.5 1 2.5.6 0 1 .7 1 1.5 0 1.8 4.7 6.5 6.5 6.5.8 0 1.5.4 1.5.8 0 .5 1.7 1.4 3.9 2 5.5 1.7 1164.7 1.7 1170.2 0 2.2-.6 3.9-1.5 3.9-2 0-.4.6-.8 1.3-.8 2 0 5.3-3.1 6.1-5.8.4-1.2 1.2-2.2 1.7-2.2s.9-1.1.9-2.5c0-1.6.6-2.5 1.5-2.5 1.1 0 1.5-1.1 1.5-4 0-2.2.5-4 1-4 .6 0 1-.7 1-1.5s-.4-1.5-1-1.5-1-4.3-1-10.8c-.1-6.7-.6-12.2-1.5-14.7s-1.5-7.9-1.5-14.8c0-5.9-.4-10.7-.9-10.7s-1.2-5.4-1.6-12c-.4-6.6-1.1-12-1.6-12s-.9-5.1-.9-11.4c0-6.9-.4-11.6-1-11.8-.6-.2-1.3-5.5-1.7-12.1-.3-6.4-.9-11.7-1.3-11.7-.5 0-.9-5.4-1.1-12-.3-7.7-.8-12.3-1.6-13.2-.9-.8-1.3-4.8-1.3-12.5 0-6.2-.4-11.3-.9-11.3-.4 0-1.1-5.3-1.3-11.7-.4-7.4-1-11.9-1.7-12.1-.7-.2-1.1-4.5-1.1-12.7 0-7.8-.4-12.5-1.1-12.7-.6-.2-1.3-5.1-1.6-11.6-.3-6.1-1-11.2-1.4-11.2-.5 0-.9-4.3-.9-9.5 0-5.1-.7-12-1.5-15.2-.8-3.1-1.5-9.9-1.5-15s-.4-9.3-.9-9.3c-.4 0-1.1-5.3-1.4-11.7-.3-7-1-11.9-1.6-12.1-.7-.2-1.1-4.7-1.1-12.2 0-7.6-.4-12-1.1-12.2-.6-.2-1.3-5.2-1.6-12.6-.3-6.7-1-12.2-1.4-12.2-.5 0-.9-4.4-.9-9.8 0-5.7-.6-11.7-1.5-14.6-.8-2.8-1.5-8.8-1.5-13.8 0-4.8-.4-8.8-.9-8.8-.4 0-1.1-5.5-1.4-12.2-.3-7.4-1-12.4-1.6-12.6-.7-.2-1.1-4.6-1.1-12.3 0-6.5-.4-11.9-.9-11.9s-1.2-5.4-1.6-12c-.4-6.6-1.1-12-1.6-12s-.9-4.9-.9-10.9c0-7.4-.5-12-1.5-14.4-1-2.4-1.5-7-1.5-13.7 0-5.5-.4-10-.9-10-.4 0-1.1-4.8-1.4-10.8-.3-5.9-1-12-1.6-13.5-.6-1.6-1.1-7.8-1.1-13.8 0-6-.4-10.9-.9-10.9s-1.2-5.2-1.6-11.5c-.4-6.3-1.1-11.5-1.6-11.5s-.9-5.1-.9-11.3c0-7.4-.4-11.7-1.2-12.5-.7-.7-1.3-5.7-1.6-12.7-.3-6.3-.8-11.5-1.2-11.5-.4 0-.9-5.4-1.2-12-.2-7.4-.9-12.5-1.6-13.2-.8-.8-1.2-5.1-1.2-12.5 0-6.2-.4-11.3-.9-11.3s-1.2-5.2-1.6-11.5c-.4-6.3-1.1-11.5-1.6-11.5s-.9-5-.9-11.1-.5-11.9-1-13c-.6-1-1.4-7.1-1.7-13.4-.3-6.3-1-11.5-1.5-11.5-.4 0-.8-4.5-.8-10 0-6.7-.5-11.3-1.5-13.7-1-2.4-1.5-7-1.5-14.4 0-6-.4-10.9-.9-10.9s-1.2-5.4-1.6-12c-.4-6.6-1.1-12-1.6-12s-.9-5.1-.9-11.4c0-7.1-.4-11.6-1.1-11.8-.6-.2-1.2-5.6-1.6-13.1-.3-7-1-12.7-1.5-12.7-.4 0-.8-3.7-.8-8.3 0-4.5-.5-10-1.2-12.2-.6-2.2-1.3-6.8-1.5-10.3-.3-3.4-.9-6.2-1.4-6.2-.5 0-.9-1.1-.9-2.4 0-1.4-.7-3.1-1.5-4-.8-.8-1.5-1.9-1.5-2.5 0-.6-.5-1.1-1.1-1.1-1.4 0-3.9-2.5-3.9-3.9 0-.6-.7-1.1-1.5-1.1s-1.5-.4-1.5-.9-1.1-1.2-2.5-1.5c-1.4-.4-2.5-1.1-2.5-1.6 0-.7-34.2-1-96.9-1h-96.9l-.6-2.3c-.3-1.2-.6-18.7-.6-39 0-23.8-.4-36.7-1-36.7s-1-4-1-9.9c0-6.5-.5-11.1-1.5-13.4-.8-2-1.5-6.4-1.5-9.7 0-3.3-.4-6-1-6-.5 0-1-1.8-1-3.9 0-2.2-.7-4.6-1.5-5.5-.9-.9-1.5-3.3-1.5-6 0-2.5-.4-4.6-.9-4.6s-1.1-1.8-1.5-4c-.3-2.2-1.1-4-1.6-4-.6 0-1-1.6-1-3.6 0-1.9-.7-4.2-1.5-5-.8-.9-1.5-2.9-1.5-4.5s-.4-2.9-1-2.9c-.5 0-1-.9-1-2.1 0-1.1-.7-2.7-1.5-3.5-.8-.9-1.5-2.9-1.5-4.5s-.4-2.9-1-2.9c-.5 0-1.2-1.1-1.6-2.5-.3-1.4-1-2.5-1.5-2.5s-.9-1.1-.9-2.4c0-1.3-.7-2.6-1.5-3-.8-.3-1.5-1.5-1.5-2.6s-.4-2-1-2c-.5 0-1-1.1-1-2.4 0-1.3-.7-2.6-1.5-3-.8-.3-1.5-1.5-1.5-2.6s-.4-2-1-2c-.5 0-1-.7-1-1.5 0-.9-.7-1.8-1.5-2.1-.8-.4-1.5-1.4-1.5-2.4s-.7-2-1.5-2.4c-.8-.3-1.5-1.2-1.5-2.1 0-.8-.4-1.5-1-1.5-.5 0-1-.9-1-1.9 0-1-.7-2.1-1.5-2.5-.8-.3-1.5-1.5-1.5-2.6s-.4-2-1-2c-.5 0-1-.7-1-1.5s-.7-1.5-1.5-1.5-1.5-.7-1.5-1.5-.4-1.5-.9-1.5-1.3-1-1.7-2.2c-.3-1.2-2.1-3.6-3.9-5.2-1.8-1.7-3.5-4.1-3.9-5.4-.4-1.2-1.2-2.2-1.7-2.2s-.9-.7-.9-1.5-.5-1.5-1.1-1.5c-1.4 0-3.9-2.5-3.9-3.9 0-.6-.7-1.1-1.5-1.1s-1.5-.5-1.5-1.1c0-1.4-2.5-3.9-3.9-3.9-.6 0-1.1-.5-1.1-1.1 0-1.4-5.5-6.9-6.9-6.9-.6 0-1.1-.5-1.1-1.1 0-1.4-2.5-3.9-3.9-3.9-.6 0-1.1-.7-1.1-1.5s-.5-1.5-1.1-1.5c-1.4 0-3.9-2.5-3.9-3.9 0-.6-.5-1.1-1.1-1.1-.7 0-2.2-1.1-3.5-2.5-1.3-1.4-3-2.5-3.9-2.5-.8 0-1.5-.7-1.5-1.5s-.5-1.5-1.1-1.5c-.7 0-2.2-1.1-3.5-2.5-1.3-1.4-3.2-2.5-4.4-2.5-1.1 0-2-.5-2-1.1 0-1.4-2.5-3.9-3.9-3.9-.6 0-1.1-.4-1.1-1 0-.5-1.1-1.2-2.5-1.6-1.4-.3-2.5-1-2.5-1.5s-.7-.9-1.5-.9-1.5-.4-1.5-1c0-.5-1.1-1.2-2.5-1.6-1.4-.3-2.5-1-2.5-1.4 0-.4-1.1-1.1-2.5-1.4-1.4-.4-2.5-1.1-2.5-1.6 0-.6-.7-1-1.5-1s-1.5-.4-1.5-1c0-.5-1.1-1.2-2.5-1.6-1.4-.3-2.5-1-2.5-1.5s-1.1-.9-2.5-.9c-1.6 0-2.5-.6-2.5-1.5s-.9-1.5-2.5-1.5c-1.4 0-2.5-.4-2.5-.9s-1.3-1.2-3-1.6c-1.6-.4-3-1.1-3-1.6s-1.1-.9-2.5-.9-2.5-.4-2.5-1c0-.5-1.1-1.2-2.5-1.6-1.4-.3-2.5-1-2.5-1.5s-1.6-.9-3.5-.9c-2.2 0-3.8-.6-4.1-1.5-.4-.9-1.9-1.5-4-1.5-1.9 0-3.4-.4-3.4-1 0-.5-1.8-1.3-4-1.6-2.2-.4-4-1-4-1.5s-1.8-.9-3.9-.9c-2.2 0-4.1-.5-4.3-1.1-.2-.6-2.5-1.3-5.1-1.6-2.6-.3-4.7-1-4.7-1.4 0-.5-1.7-.9-3.8-.9-2.1 0-4.7-.7-5.8-1.5-1.2-.9-4.4-1.4-9.1-1.5-4 0-7.3-.4-7.3-.9s-2.8-1.2-6.2-1.5c-10.8-1-63-1.5-68.3-.6zM692 60c0 .6 2.8 1 6.3 1s7.4.6 9.1 1.5c1.5.8 5.3 1.5 8.2 1.5 3 0 5.4.4 5.4 1 0 .5 1.3 1 2.9 1 1.6 0 3.6.7 4.5 1.5.8.9 3.3 1.5 5.9 1.5 3.1 0 4.7.5 5.1 1.5.3.8 1.7 1.5 3.1 1.5 1.4 0 2.5.4 2.5 1 0 .5 1.4 1 3.1 1 1.7 0 3.7.7 4.5 1.5.9.8 2.4 1.5 3.5 1.5 1 0 1.9.4 1.9.9s1.6 1.2 3.5 1.5c1.9.4 3.5 1.1 3.5 1.6 0 .6 1.1 1 2.4 1 1.3 0 2.6.7 3 1.5.3.8 1.5 1.5 2.6 1.5s2 .4 2 1c0 .5.7 1 1.5 1s1.5.4 1.5 1c0 .5 1.1 1.2 2.5 1.6 1.4.3 2.5 1 2.5 1.4 0 .4 1.1 1.1 2.5 1.4 1.4.4 2.5 1.1 2.5 1.6 0 .6.7 1 1.5 1s1.5.4 1.5.9 1.1 1.2 2.5 1.5c1.4.4 2.5 1.1 2.5 1.6 0 .6.7 1 1.5 1s1.5.7 1.5 1.5.7 1.5 1.5 1.5 1.5.3 1.5.8c0 .4 1.6 1.6 3.5 2.6 1.9 1.1 3.5 2.3 3.5 2.8 0 .4.7.8 1.5.8s1.5.7 1.5 1.5.5 1.5 1 1.5c1.2 0 2.5 1 7 5.2 1.5 1.6 3.3 2.8 3.9 2.8.6 0 1.1.5 1.1 1.1 0 1.4 2.5 3.9 3.9 3.9.6 0 1.1.5 1.1 1.1 0 .6 1.8 2.8 4 5s4 4.6 4 5.4c0 .8.5 1.5 1.1 1.5 1.4 0 3.9 2.5 3.9 3.9 0 .6.5 1.1 1 1.1.6 0 1 .7 1 1.5s.7 1.5 1.5 1.5c.9 0 1.5.9 1.5 2.5s.6 2.5 1.5 2.5c.8 0 1.5.5 1.5 1.1 0 .7 1.1 2.2 2.5 3.5 1.4 1.3 2.5 3 2.5 3.9 0 .8.5 1.5 1 1.5.6 0 1 .7 1 1.5s.7 1.5 1.5 1.5c.9 0 1.5.9 1.5 2.4 0 1.3.7 2.6 1.5 3 .8.3 1.5 1.5 1.5 2.6s.5 2 1 2c.6 0 1 .5 1 1.1 0 .6.7 1.7 1.5 2.5.8.9 1.5 2.6 1.5 4 0 1.3.4 2.4.9 2.4s1.2 1.3 1.6 3c.4 1.6 1.1 3 1.6 3s.9 1.1.9 2.5c0 1.6.6 2.5 1.5 2.5s1.5.9 1.5 2.5c0 1.4.5 2.5 1 2.5.6 0 1 1.3 1 2.9 0 1.6.7 3.6 1.5 4.5.8.8 1.5 2.8 1.5 4.5 0 1.7.4 3.1.9 3.1.6 0 1.3 2 1.7 4.5.3 2.5 1 4.5 1.5 4.5s.9 2.1.9 4.6c0 2.7.6 5.1 1.5 6 .9.9 1.5 3.4 1.5 6 0 2.4.5 4.4 1 4.4.6 0 1 3 1 6.9 0 3.8.7 8.8 1.5 11.1 1.2 3.5 1.5 11 1.5 42.1V344H439.2l-.6-2.3c-1-3.7-.5-64.7.5-72.7.6-4.1 1.3-11.2 1.6-15.8.2-4.5.8-8.2 1.2-8.2.5 0 1.1-2.7 1.5-6 .4-3.3 1.1-6 1.6-6 .6 0 1-1.8 1-4.1s.7-4.7 1.5-5.5c.8-.9 1.5-3.1 1.5-5s.5-3.4 1-3.4c.6 0 1-1.2 1-2.6 0-1.4.7-3.2 1.5-4 .8-.9 1.5-2.9 1.5-4.5s.4-2.9.9-2.9 1.2-1.1 1.5-2.5c.4-1.4 1.1-2.5 1.6-2.5.6 0 1-1.3 1-2.9 0-1.6.7-3.4 1.5-4.1.8-.7 1.5-2.1 1.5-3.1 0-1.1.5-1.9 1-1.9.6 0 1-.9 1-1.9 0-1.1.7-2.6 1.5-3.5.8-.8 1.5-1.9 1.5-2.5 0-.6.4-1.1 1-1.1.5 0 1.2-1.1 1.6-2.5.3-1.4 1-2.5 1.5-2.5s.9-1.1.9-2.5c0-1.6.6-2.5 1.5-2.5.8 0 1.5-.7 1.5-1.5s.5-1.5 1-1.5c.6 0 1-.8 1-1.9 0-1 1.1-2.7 2.5-3.7s2.5-2.4 2.5-3.1c0-.7.7-1.3 1.5-1.3.9 0 1.5-.9 1.5-2.5s.6-2.5 1.5-2.5c.8 0 1.5-.7 1.5-1.5s.5-1.5 1-1.5c.6 0 1-.5 1-1 0-1.2 1-2.5 5.3-7 1.5-1.5 2.7-3.3 2.7-3.9 0-.6.5-1.1 1.1-1.1 1.4 0 3.9-2.5 3.9-3.9 0-.6.5-1.1 1.1-1.1 1.4 0 6.9-5.5 6.9-6.9 0-.6.5-1.1 1-1.1.6 0 2.3-1.1 3.8-2.5s3-2.5 3.5-2.5c.4 0 1.8-1.1 3.1-2.5s2.6-2.5 3-2.5c.4 0 1.4-.6 2.1-1.3 3.3-2.9 4.5-3.7 5.5-3.7.5 0 1-.7 1-1.5s.7-1.5 1.5-1.5 1.5-.4 1.5-1c0-.5 1.1-1.2 2.5-1.6 1.4-.3 2.5-1 2.5-1.5s.7-.9 1.5-.9 1.5-.4 1.5-1c0-.5 1.1-1.2 2.5-1.6 1.4-.3 2.5-1 2.5-1.4 0-.4 1.1-1.1 2.5-1.4 1.4-.4 2.5-1.1 2.5-1.6 0-.6.7-1 1.5-1s1.5-.5 1.5-1c0-.6 1.1-1 2.5-1 1.6 0 2.5-.6 2.5-1.5s.9-1.5 2.5-1.5c1.4 0 2.5-.4 2.5-.9s1.4-1.2 3-1.6c1.7-.4 3-1.1 3-1.6s1.1-.9 2.4-.9c1.4 0 3.1-.7 4-1.5.8-.8 2.6-1.5 4-1.5s2.6-.5 2.6-1c0-.6 1.1-1 2.4-1 1.4 0 3.1-.7 4-1.5.8-.8 3.1-1.5 5-1.5 2 0 3.6-.4 3.6-1 0-.5 2.3-1.2 5-1.6 2.8-.4 5-1 5-1.5s2.2-.9 4.9-.9 6.5-.7 8.4-1.5c2-.8 6.4-1.5 9.7-1.5 3.3 0 6-.4 6-1s9.2-1 25.5-1 25.5.4 25.5 1zM379 427.8c0 25.6-.1 26.8-2 28.5-1.1.9-2.7 1.7-3.4 1.7-1.7 0-8 3.2-8.4 4.2-.2.5-1.2.8-2.3.8-1 0-1.9.5-1.9 1 0 .6-.8 1.4-1.7 1.7-1.8.7-2.9 1.5-5.8 4-.7.7-1.8 1.3-2.4 1.3-.6 0-1.1.5-1.1 1.1 0 1.4-2.5 3.9-3.9 3.9-.6 0-1.1.5-1.1 1.1 0 .6-1.2 2.4-2.7 3.9-4.3 4.5-5.3 5.8-5.3 7 0 .5-.4 1-.9 1s-1.2 1.1-1.5 2.5c-.4 1.4-1.1 2.5-1.6 2.5-.6 0-1 1.1-1 2.4 0 1.3-.7 2.6-1.5 3-.8.3-1.5 1.7-1.5 3.1 0 1.4-.4 2.5-1 2.5-.5 0-1 1.5-1 3.2 0 1.8-.7 4.2-1.5 5.2-1 1.3-1.5 4.4-1.5 9.3 0 4.2-.4 7.3-1 7.3-.5 0-1 2-1 4.5s.5 4.5 1 4.5c.6 0 1 3.1 1 7.3 0 4.9.5 8 1.5 9.3.8 1 1.5 3.4 1.5 5.1 0 1.8.5 3.3 1 3.3.6 0 1 1.1 1 2.5s.7 2.8 1.5 3.1c.8.4 1.5 1.7 1.5 3s.4 2.4 1 2.4c.5 0 1.2 1.1 1.6 2.5.3 1.4 1 2.5 1.5 2.5s.9.5.9 1c0 1.2 1 2.5 5.3 7 1.5 1.5 2.7 3.1 2.7 3.5 0 1.1 5.8 6.5 6.9 6.5.6 0 1.1.7 1.1 1.5s.5 1.5 1 1.5c1 0 2.2.8 5.5 3.7.7.7 2.2 1.3 3.3 1.3 1.1 0 2.2.7 2.6 1.5.3.8 1.2 1.5 2.1 1.5.8 0 1.5.4 1.5 1 0 .5.9 1 2.1 1 1.1 0 2.7.7 3.5 1.5.9.8 2.9 1.5 4.5 1.5s2.9.4 2.9 1c0 .5 1.4 1 3 1 1.7 0 4.7.7 6.7 1.5 2.5 1 7.1 1.5 15.3 1.5 8.2 0 12.8-.5 15.3-1.5 2-.8 4.8-1.5 6.2-1.5 1.4 0 2.5-.5 2.5-1 0-.6 1.5-1 3.4-1 1.8 0 3.9-.7 4.6-1.5.7-.8 2.1-1.5 3.1-1.5 1.1 0 1.9-.4 1.9-1 0-.5 1.1-1.2 2.5-1.6 1.4-.3 2.5-1 2.5-1.5s1.1-.9 2.5-.9c1.6 0 2.5-.6 2.5-1.5 0-.8.5-1.5 1-1.5.6 0 2.3-1.1 3.8-2.5s3.2-2.5 3.9-2.5c.7 0 1.3-.7 1.3-1.5s.5-1.5 1.1-1.5c1.5 0 3.5-2.2 4.3-4.8.4-1.2 1.2-2.2 1.7-2.2s.9-.7.9-1.5.5-1.5 1.1-1.5c1.5 0 3.5-2.2 4.3-4.8.4-1.2 1.2-2.2 1.7-2.2s.9-.9.9-2 .5-2 1-2c.6 0 1-.9 1-2s.7-2.3 1.5-2.6c.9-.4 1.5-1.9 1.5-4 0-1.9.4-3.4 1-3.4.5 0 1.2-1.7 1.6-3.8.4-2 1.1-4 1.6-4.3 1.2-.8 1.2-37 0-37.8-.5-.3-1.2-2.4-1.5-4.6-.4-2.2-1.1-4.1-1.7-4.3-.5-.2-1-1.9-1-3.7 0-2-.6-3.5-1.5-3.9-.8-.3-1.5-1.5-1.5-2.6s-.3-2-.8-2c-.7 0-2.5-3-3.8-6.3-.3-.9-1-1.7-1.5-1.7s-.9-.7-.9-1.5-.7-1.5-1.5-1.5-1.5-.5-1.5-1c0-1-.8-2.2-3.7-5.5-.7-.7-1.3-1.8-1.3-2.4 0-.6-.7-1.1-1.5-1.1s-1.5-.7-1.5-1.5c0-.9-.9-1.5-2.5-1.5-1.4 0-2.5-.5-2.5-1.1 0-1.4-2.5-3.9-3.9-3.9-.6 0-1.1-.4-1.1-.9s-1-1.3-2.2-1.7c-1.3-.4-2.5-.9-2.8-1.3-.9-1.1-7.2-4.1-8.7-4.1-4.1 0-4.3-1.7-4.3-29.9V401h456v54l-2.5.6c-1.4.3-2.5 1-2.5 1.5s-1.1.9-2.4.9c-1.3 0-2.6.7-3 1.5-.3.8-1.5 1.5-2.6 1.5s-2 .4-2 1c0 .5-.7 1-1.5 1s-1.5.7-1.5 1.5-.9 1.5-2 1.5-4.2 2.2-7 5c-2.8 2.7-5.5 5-6 5-.6 0-1 .5-1 1.1 0 .6-1.5 2.5-3.4 4.2-1.8 1.8-3.6 4.2-4 5.4-.4 1.3-1.2 2.3-1.7 2.3s-.9.7-.9 1.5-.4 1.5-1 1.5c-.5 0-1.2 1.1-1.6 2.5-.3 1.4-1 2.5-1.5 2.5s-.9 1.1-.9 2.5-.4 2.5-1 2.5c-.5 0-1.3 1.8-1.6 4-.4 2.2-1 4-1.5 4s-.9 1.7-.9 3.8c0 2.1-.7 4.7-1.5 5.8-2.1 2.7-2.1 23.8 0 28.7.8 2 1.5 5.2 1.5 7.2 0 1.9.4 3.5.9 3.5s1.1 1.8 1.5 4c.3 2.2 1.1 4 1.6 4 .6 0 1 1.1 1 2.5s.5 2.5 1 2.5c.6 0 1 .6 1 1.4 0 .8.6 2.1 1.4 2.8.7.8 1.7 2.4 2 3.6.4 1.2 1.2 2.2 1.7 2.2s.9.5.9 1.1c0 .7 1.1 2.2 2.5 3.5 1.4 1.3 2.5 2.6 2.5 2.9 0 1 2.8 3.5 3.9 3.5.6 0 1.1.7 1.1 1.5s.5 1.5 1.1 1.5c1.4 0 3.9 2.5 3.9 3.9 0 .6.5 1.1 1.1 1.1.7 0 2.2 1.1 3.5 2.5 1.3 1.4 3.2 2.5 4.4 2.5 1.1 0 2 .4 2 1 0 .5 1.1 1.2 2.5 1.6 1.4.3 2.5 1 2.5 1.5s1.1.9 2.5.9c1.6 0 2.5.6 2.5 1.5 0 1.1 1.1 1.5 4 1.5 2.2 0 4 .4 4 1 0 .5 1.5 1 3.3 1 1.7 0 4.5.7 6.1 1.5 3.5 1.9 29.2 2.2 29.8.4.2-.6 2.5-1.3 5.1-1.6 2.6-.3 4.7-1 4.7-1.4 0-.5 1.6-.9 3.5-.9 2.2 0 3.8-.6 4.1-1.5.4-.8 1.7-1.5 3-1.5s2.4-.4 2.4-.9 1.1-1.2 2.5-1.5c1.4-.4 2.5-1.1 2.5-1.6 0-.6.9-1 2-1s4.3-2.3 7-5c2.7-2.8 5.4-5 6-5 .5 0 1-.7 1-1.5s.5-1.5 1.1-1.5c1.1 0 3.9-2.5 3.9-3.5 0-.3 1.1-1.6 2.5-2.9 1.4-1.3 2.5-2.8 2.5-3.5 0-.6.4-1.1 1-1.1.5 0 1.2-1.1 1.6-2.5.3-1.4 1-2.5 1.4-2.5.4 0 1.1-1.1 1.4-2.5.4-1.4 1.1-2.5 1.6-2.5.6 0 1-.9 1-2.1 0-1.1.7-2.7 1.5-3.5.8-.9 1.5-2.9 1.5-4.5s.4-2.9.9-2.9 1.1-1.9 1.4-4.3c.3-2.3 1-6.4 1.7-9 1.5-6.2 1-24.9-.7-25.5-.8-.2-1.3-2.2-1.3-5.3 0-2.7-.4-4.9-.9-4.9s-1.1-1.8-1.5-4c-.3-2.2-1.1-4-1.6-4-.6 0-1-1.1-1-2.5s-.4-2.5-1-2.5c-.5 0-1.2-1.1-1.6-2.5-.3-1.4-1-2.5-1.5-2.5s-.9-.7-.9-1.5-.4-1.5-.9-1.5-1.3-1-1.7-2.2c-.7-2.5-15.7-17.8-17.4-17.8-.5 0-1-.7-1-1.5 0-.9-.9-1.5-2.5-1.5s-2.5-.6-2.5-1.5c0-.8-.7-1.5-1.5-1.5s-1.5-.5-1.5-1c0-.6-.9-1-2-1s-2.3-.7-2.6-1.5c-.4-.9-1.9-1.5-3.5-1.5s-2.9-.4-2.9-.9-.9-1.3-2-1.6c-1.9-.6-2-1.5-2-27.6V401h168.6l1.2 3.3c.7 1.8 1.2 7.7 1.2 13s.4 9.7.9 9.7 1.2 5.8 1.6 13c.4 7.1 1.1 13 1.6 13s.9 4.5.9 10.1c0 5.5.5 10.9 1 12 .6 1 1.4 7.1 1.7 13.4.3 6.3.9 11.5 1.3 11.5.5 0 .9 5.4 1.1 12 .3 7.7.8 12.3 1.7 13.2.8.8 1.2 4.8 1.2 12.5 0 6.2.4 11.3.9 11.3s1.2 5.4 1.6 12c.4 6.6 1.1 12 1.6 12s.9 5.6.9 12.4c0 8 .4 12.6 1.1 12.8.6.2 1.3 5.1 1.6 12.1.3 6.4 1 11.7 1.4 11.7.5 0 .9 4.3.9 9.5 0 6.2.5 10.8 1.5 13.2 1 2.4 1.5 7.1 1.5 14.9 0 6.3.4 11.4.9 11.4.4 0 1.1 5.1 1.4 11.2.3 6.5 1 11.4 1.6 11.6.7.2 1.1 4.8 1.1 12.2 0 7.6.4 12 1.1 12.2.6.2 1.3 5.2 1.6 12.6.3 6.7 1 12.2 1.4 12.2.5 0 .9 4.3.9 9.5 0 5.1.7 12 1.5 15.2.8 3.1 1.5 9.7 1.5 14.5 0 4.8.4 8.8.8 8.8.5 0 1.2 5.5 1.5 12.2.4 7 1.1 12.4 1.7 12.6.6.2 1 4.9 1 12.2 0 7.4.4 12 1.1 12.2.6.2 1.3 5.1 1.6 11.6.3 6.1 1 11.2 1.4 11.2.5 0 .9 4.8.9 10.7 0 6.9.6 12.3 1.5 14.8.8 2.4 1.4 7.9 1.5 13.7 0 5.4.4 9.8.9 9.8.4 0 1.1 5.3 1.3 11.7.4 7.4 1 11.9 1.7 12.1.7.2 1.1 4.5 1.1 12.8 0 6.8.4 12.4.9 12.4s1.2 5.4 1.6 12c.4 6.6 1.1 12 1.6 12s.9 4.9.9 10.9c0 7.4.5 12 1.5 14.4 1 2.4 1.5 7 1.5 13.7 0 5.5.4 10 .9 10 .4 0 1.1 4.8 1.4 10.7.3 6 1 12.1 1.6 13.6.6 1.6 1.1 7.8 1.1 13.8 0 6 .4 10.9.9 10.9s1.2 5.2 1.6 11.5c.4 6.3 1.1 11.5 1.6 11.5s.9 5.1.9 11.3c0 7.4.4 11.7 1.2 12.5.7.7 1.4 5.8 1.6 13.2.3 6.6.8 12 1.2 12 .4 0 .9 5.1 1.2 11.2.2 6.2 1 12.3 1.6 13.5.7 1.3 1.2 6.5 1.2 12.7 0 5.8.4 10.6.9 10.6s1.2 5.6 1.6 12.5c.4 6.9 1.1 12.5 1.6 12.5s.9 4.5.9 9.9c0 5.5.4 11 .9 12.3.5 1.3 1.2 5.1 1.6 8.6l.7 6.2-542.3-.2-542.4-.3.3-7.5c.2-4.1.8-7.7 1.3-7.8.5-.2.9-5.5.9-11.7 0-7 .4-11.5 1.1-11.7.6-.2 1.2-5.6 1.6-13.1.3-7 .9-12.7 1.3-12.7s.9-5.1 1.2-11.3c.2-6.1 1-12.2 1.6-13.4.7-1.3 1.2-6.4 1.2-12.2 0-5.6.4-10.1.9-10.1s1.2-5.6 1.6-12.5c.4-6.9 1.1-12.5 1.6-12.5s.9-5.4.9-11.9c0-7.3.4-12.1 1-12.3.6-.2 1.3-5.5 1.7-12.1.3-6.4.9-11.7 1.3-11.7s.9-5.4 1.2-12c.2-7.4.9-12.5 1.6-13.2.8-.8 1.2-5.1 1.2-12.5 0-6.2.4-11.3.9-11.3.4 0 1.1-5 1.3-11.2.4-6.9 1-11.4 1.7-11.6.7-.2 1.1-4.7 1.1-13.2s.4-13 1.1-13.2c.7-.2 1.3-4.7 1.7-11.6.2-6.2.9-11.2 1.3-11.2.5 0 .9-4.3.9-9.5 0-5.1.7-12 1.5-15.2.8-3.1 1.5-9.9 1.5-15s.4-9.3.8-9.3c.5 0 1.2-5.3 1.5-11.7.4-6.6 1.1-11.9 1.7-12.1.6-.2 1-5 1-12.2 0-7.6.4-12 1.1-12.2.6-.2 1.3-5.2 1.6-12.6.3-6.7 1-12.2 1.4-12.2.5 0 .9-4.4.9-9.8 0-5.7.6-11.7 1.5-14.6.8-2.8 1.5-8.8 1.5-13.8 0-4.8.4-8.8.8-8.8.5 0 1.2-5.7 1.5-12.7.4-7.5 1-12.9 1.6-13.1.7-.2 1.1-4.7 1.1-11.8 0-6.3.4-11.4.9-11.4s1.2-5.4 1.6-12c.4-6.6 1.1-12 1.6-12s.9-4.9.9-10.9c0-7.4.5-12 1.5-14.4 1-2.4 1.5-7 1.5-13.7 0-5.5.4-10 .9-10 .4 0 1-5.1 1.3-11.3.3-6.2 1-12.3 1.7-13.4.6-1.3 1.1-6.9 1.1-13.2 0-6.1.4-11.1.9-11.1s1.2-5.4 1.6-12c.4-6.6 1.1-12 1.6-12s.9-4.9.9-10.8c0-7 .4-11.2 1.2-12 .7-.7 1.4-5.8 1.6-13.2.3-6.6.8-12 1.3-12s.9-4.5.9-10c0-6.7.5-11.3 1.5-13.7 1-2.4 1.5-7 1.5-13.9 0-5.7.4-10.4.9-10.4s1.2-5.6 1.6-12.5c.4-6.9 1.1-12.5 1.6-12.5s.9-4.8.9-10.6.5-11.4 1.1-12.5c.6-1.1 1.3-7 1.6-13 .3-6 1-10.9 1.4-10.9.5 0 .9-4.2.9-9.3 0-5 .3-10.9.6-13l.7-3.7H379v26.8zm36 83.2c0 .5 1.1 1 2.4 1 1.4 0 3.1.7 4 1.5.8.8 1.7 1.5 2 1.5 1.2 0 6.4 5.8 7.1 7.9.3 1.1 1.1 2.1 1.6 2.1s.9 1.8.9 4c0 2.3.5 4 1.1 4 .7 0 .9 1.3.5 3.7-.4 2.1-.9 5.6-1.3 7.8-.3 2.4-1.5 4.9-2.9 6.2-1.3 1.2-2.4 2.9-2.4 3.7 0 .9-1.1 1.8-2.5 2.2-1.4.3-2.5 1-2.5 1.5s-.5.9-1.1.9c-.6 0-1.7.7-2.5 1.5-1.2 1.1-4 1.5-12 1.5-8.6 0-10.4-.3-10.4-1.5 0-.8-.7-1.5-1.5-1.5s-1.5-.4-1.5-.9-1.1-1.2-2.5-1.5c-1.4-.4-2.5-1.3-2.5-2.2 0-.8-1.1-2.5-2.4-3.7-1.4-1.3-2.6-3.8-2.9-6.2-.4-2.2-.9-5.7-1.3-7.8-.4-2.4-.2-3.7.5-3.7.6 0 1.1-1.7 1.1-4 0-2.2.4-4 .9-4s1.3-1 1.6-2.1c.7-2.1 5.9-7.9 7.1-7.9.3 0 1.2-.7 2-1.5.9-.8 2.6-1.5 4-1.5 1.3 0 2.4-.5 2.4-1 0-.6 2.8-1 6.5-1s6.5.4 6.5 1zm516 0c0 .5 1.1 1 2.5 1s2.8.7 3.1 1.5c.4.8 1.2 1.5 2 1.5 1.8 0 8.4 6.7 8.4 8.5 0 .8.4 1.5.9 1.5.7 0 2.2 7.7 2.2 12 .1 5.5-1.6 11.7-3.7 13.7-1.3 1.2-2.4 2.9-2.4 3.7 0 .9-1.1 1.8-2.5 2.2-1.4.3-2.5 1-2.5 1.5s-.5.9-1.1.9c-.6 0-1.7.7-2.5 1.5-1.2 1.1-4 1.5-12 1.5-8.6 0-10.4-.3-10.4-1.5 0-.8-.7-1.5-1.5-1.5s-1.5-.4-1.5-.9-1.1-1.2-2.5-1.5c-1.6-.4-2.5-1.3-2.5-2.6 0-1.1-.4-2-1-2-.5 0-1-.7-1-1.5s-.7-1.5-1.5-1.5c-1.1 0-1.5-1.1-1.5-4 0-2.2-.4-4-1-4-.5 0-1-1.8-1-4s.5-4 1-4c.6 0 1-2.3 1-5 0-3.8.4-5 1.5-5 .8 0 1.5-.5 1.5-1 0-1.1 5.6-7 6.6-7 .3 0 1.2-.7 2-1.5.9-.8 2.6-1.5 4-1.5 1.3 0 2.4-.5 2.4-1 0-.6 2.8-1 6.5-1s6.5.4 6.5 1z"/><path d="M728.7 650.7c-1.3 1.3-.7 5.3.8 5.3 1 0 1.5-1 1.5-3 0-2.9-.9-3.8-2.3-2.3zM781.5 651c-1.2 1.9.7 2.7 5.3 2.2 4.7-.5 5.8-2.2 1.3-2.2-1.6 0-3.6-.3-4.4-.6-.8-.3-1.8 0-2.2.6zM746 652c0 .5.7 1 1.5 1s1.5-.5 1.5-1c0-.6-.7-1-1.5-1s-1.5.4-1.5 1zM755 652c0 .5.7 1 1.5 1s1.5.9 1.5 2 .7 2 1.5 2c.9 0 1.5.9 1.5 2.5s.6 2.5 1.5 2.5c.8 0 1.5.7 1.5 1.5s-.7 1.5-1.5 1.5c-1 0-1.5 1-1.5 3s-.5 3-1.5 3-1.5 1-1.5 3c0 1.6.4 3 .9 3s1.2-1.4 1.6-3c.4-1.7 1.1-3 1.6-3s.9-.7.9-1.5.9-1.5 2-1.5 2 .7 2 1.5.7 1.5 1.5 1.5 1.5.7 1.5 1.5.7 1.5 1.5 1.5 1.5-.7 1.5-1.5-.6-1.5-1.4-1.5c-.8 0-1.7-1.4-2.1-3-.4-1.7-1.1-3-1.6-3-1.5 0-1-4.7.6-5.4.8-.3 1.5-1.2 1.5-2s.4-1.6.9-1.8c.4-.2 1.2-1.3 1.5-2.6.6-1.6.3-2.2-.8-2.2-1 0-1.6.9-1.6 2.5s-.6 2.5-1.5 2.5c-.8 0-1.5.9-1.5 2s-.6 2-1.3 2c-1.3 0-4.7-3.4-4.7-4.8 0-1-3.8-4.2-5-4.2-.6 0-1 .4-1 1zM737 660.5v7.5h3c2 0 3-.5 3-1.5 0-.8-.7-1.5-1.5-1.5-1.2 0-1.5-1.3-1.5-6s-.3-6-1.5-6-1.5 1.5-1.5 7.5zM802 657.5c0 3.3.4 4.5 1.5 4.5 1 0 1.5-1 1.5-3 0-2.7.3-3 3-3 2 0 3-.5 3-1.5 0-1.1-1.2-1.5-4.5-1.5H802v4.5zM793 658c0 2.9.4 4 1.5 4s1.5-1.1 1.5-4-.4-4-1.5-4-1.5 1.1-1.5 4zM716.7 656.7c-1.5 1.4-.6 2.3 2.3 2.3 2 0 3-.5 3-1.5 0-1.5-4-2.1-5.3-.8zM779 666.5c0 11.2 1.4 14.3 2.2 4.8.3-3.1 1-5.9 1.6-6.1 1.7-.5 1.5-3.2-.3-3.2-1 0-1.5-1-1.5-3 0-1.7-.4-3-1-3s-1 4.2-1 10.5zM814 662c0 4.7.3 6 1.5 6s1.5-1.3 1.5-6-.3-6-1.5-6-1.5 1.3-1.5 6zM826 659.5c0 1.6.6 2.5 1.5 2.5 1.6 0 1.9-.9.9-3.4-.9-2.5-2.4-1.9-2.4.9zM711 663.4c0 2.5.5 4.6 1 4.6.6 0 1 .7 1 1.5 0 1.2 1.4 1.5 6.5 1.5s6.5.3 6.5 1.5c0 .8.5 1.5 1 1.5.6 0 1-.7 1-1.5s-.4-1.5-1-1.5c-.5 0-1-.7-1-1.5 0-1.2-1.4-1.5-6.6-1.5h-6.6l.4-4.2c.2-2.7-.1-4.3-.9-4.5-.9-.3-1.3.9-1.3 4.1zM722.7 659.7c-1.2 1.1-.8 2.3.8 2.3.8 0 1.5-.7 1.5-1.5 0-1.6-1.2-2-2.3-.8zM834.5 662c-.4 1.6-1.1 3-1.6 3s-.9 2-.9 4.5c0 3.3-.4 4.5-1.5 4.5-1 0-1.5 1-1.5 3s-.5 3-1.5 3c-.8 0-1.5.7-1.5 1.5s.7 1.5 1.5 1.5 1.5-.6 1.5-1.4c0-.8.7-1.6 1.5-2 .8-.3 1.5-1.7 1.5-3.1 0-1.6.6-2.5 1.5-2.5.8 0 1.5-.7 1.5-1.5s.4-1.5.9-1.5 1.2-1.4 1.6-3c.7-3.4-.2-9-1.5-9-.5 0-1.1 1.3-1.5 3zM746 663.5c0 .8.7 1.5 1.5 1.5s1.5-.7 1.5-1.5-.7-1.5-1.5-1.5-1.5.7-1.5 1.5zM790 663.4c0 1 .9 1.6 2.1 1.6 2.4 0 2.1-2.3-.4-2.8-1-.2-1.7.3-1.7 1.2zM799.6 667.2c-1.2 4.5-.7 9.8.9 9.8 1.1 0 1.5-1.2 1.5-4.5 0-4.3.1-4.5 3-4.5 2.7 0 3 .3 3 3 0 2 .5 3 1.5 3s1.5-1 1.5-3-.5-3-1.5-3c-.8 0-1.5-.7-1.5-1.5 0-1.1-1.1-1.5-3.9-1.5-3.2 0-4 .4-4.5 2.2zM823 669.5c0 3.3.4 4.5 1.5 4.5s1.5-1.2 1.5-4.5-.4-4.5-1.5-4.5-1.5 1.2-1.5 4.5zM855 669.5c0 .8-.7 1.5-1.5 1.5s-1.5.7-1.5 1.5-.7 1.5-1.5 1.5-1.5.7-1.5 1.5-.7 1.5-1.6 1.5c-1.7 0-1.4 2.2.4 2.8.7.2 1.2-.3 1.2-1.2 0-.9.7-1.6 1.5-1.6 1.7 0 2.2 5.6.5 6.2-.6.2-1.3 2-1.7 4.1-.4 3-.3 3.7 1.1 3.7 1.2 0 1.6-1 1.6-4 0-2.9.4-4 1.5-4s1.5-1.2 1.5-4.5.4-4.5 1.5-4.5c1 0 1.5-1 1.5-3s-.5-3-1.5-3c-.8 0-1.5.7-1.5 1.5zM740.2 675.2c.4 5.9 2.8 6.3 2.8.4 0-3.5-.4-4.6-1.6-4.6-1.2 0-1.4.9-1.2 4.2zM749 675.6c0 .9.5 1.4 1.2 1.2 1.8-.6 2.1-2.8.4-2.8-.9 0-1.6.7-1.6 1.6zM864 677c0 2-.5 3-1.5 3-.9 0-1.5.9-1.5 2.4 0 1.3-.7 2.6-1.5 3-.8.3-1.5 1.2-1.5 2.1 0 .8-.4 1.5-.9 1.5-1.2 0-2.2 4.5-1.5 6.4.7 1.7 5.4 2.2 5.4.6 0-.6-.7-1-1.5-1-1 0-1.5-1-1.5-3s.5-3 1.5-3c.8 0 1.5-.7 1.5-1.5s.7-1.5 1.5-1.5 1.5.7 1.5 1.6c0 1.2.6 1.5 2.3 1 1.2-.3 2.5-.6 3-.6.4 0 .7-.5.7-1 0-.6-1.3-1-3-1-2.7 0-3-.3-3-3 0-2 .5-3 1.5-3 .8 0 1.5-.7 1.5-1.5 0-1 1-1.5 3-1.5s3 .5 3 1.5c0 .8.7 1.5 1.5 1.5s1.5-.7 1.5-1.5-.7-1.5-1.5-1.5-1.5-.7-1.5-1.5c0-1.1-1.2-1.5-4.5-1.5-4.3 0-4.5.1-4.5 3zM714 678c0 2.4 3.6 5 7 5 2.3 0 4.2-.7 5.3-2 1.9-2.3 2.2-4 .7-4-.5 0-1 .7-1 1.5 0 1.1-1.2 1.5-5 1.5s-5-.4-5-1.5c0-.8-.4-1.5-1-1.5-.5 0-1 .4-1 1zM811 678.5c0 .8.7 1.5 1.5 1.5s1.5-.7 1.5-1.5-.7-1.5-1.5-1.5-1.5.7-1.5 1.5zM820 680c0 2 .5 3 1.5 3s1.5-1 1.5-3-.5-3-1.5-3-1.5 1-1.5 3zM838 684.5c0 2.5.5 4.5 1 4.5.6 0 1-.7 1-1.5s.7-1.5 1.5-1.5 1.5-.7 1.5-1.5-.7-1.5-1.5-1.5-1.5-.7-1.5-1.5-.4-1.5-1-1.5c-.5 0-1 2-1 4.5zM843.2 681.2c.6 1.8 2.8 2.1 2.8.4 0-.9-.7-1.6-1.6-1.6-.9 0-1.4.5-1.2 1.2zM882 684.5c0 .8-.7 1.5-1.5 1.5-.9 0-1.5.9-1.5 2.5s-.6 2.5-1.5 2.5c-.8 0-1.5.9-1.5 2s-.7 2-1.5 2c-.9 0-1.5.9-1.5 2.5s-.6 2.5-1.6 2.5c-.9 0-1.4.7-1.2 1.7.5 2.5 2.8 2.8 2.8.4 0-1.2.6-2.1 1.5-2.1.8 0 1.5-.7 1.5-1.5 0-1.7.4-1.8 3.8-.9 1.9.6 2.2 1.3 2.2 6 0 4.1.4 5.4 1.5 5.4s1.5-1.2 1.5-4.5c0-4.3.1-4.5 3-4.5 1.7 0 3-.5 3-1 0-.6.7-1 1.5-1 2.4 0 2-8.1-.5-10.3-1.1-.9-2.5-1.7-3-1.7-.6 0-1-.7-1-1.5 0-1-1-1.5-3-1.5s-3 .5-3 1.5zm6 2.5c0 .5.7 1 1.5 1 1.1 0 1.5 1.2 1.5 5.1v5.2l-4.2-.6c-2.4-.3-4.4-1.1-4.6-1.6-.2-.6-1-1.1-1.8-1.1-1.9 0-1.8-2.6.1-3.4.8-.3 1.5-1.7 1.5-3.1 0-2.1.5-2.5 3-2.5 1.7 0 3 .4 3 1zM861 699c0 .5.7 1 1.5 1s1.5-.5 1.5-1c0-.6-.7-1-1.5-1s-1.5.4-1.5 1zM917.7 709.7c-.9.8-.9 4.6-.1 6.7 1.2 3.1 2.4 1.6 2.4-2.9 0-4.2-.7-5.4-2.3-3.8zM911.7 712.6c-1.3 1.3-.7 2.4 1.4 2.4 1.1 0 1.9-.5 1.7-1.2-.5-1.4-2.2-2.1-3.1-1.2zM904.8 715.7c-1 .2-1.8.8-1.8 1.2 0 .5-1.3 1.1-3 1.4-4.3.9-3.7 2.7.9 2.7 2.5 0 4.1-.5 4.5-1.5.3-.8 1.3-1.5 2.2-1.5.8 0 1.4-.5 1.2-1.2-.5-1.4-1.7-1.7-4-1.1zM915 721c0 1.6.5 3 1 3 .6 0 1-1.4 1-3 0-1.7-.4-3-1-3-.5 0-1 1.3-1 3zM906 722.5c0 .8.5 1.5 1 1.5.6 0 1-.7 1-1.5s-.4-1.5-1-1.5c-.5 0-1 .7-1 1.5zM909 725.5c0 .8.5 1.5 1 1.5.6 0 1 .7 1 1.5s.7 1.5 1.5 1.5c1 0 1.5-1 1.5-3 0-2.5-.4-3-2.5-3-1.6 0-2.5.6-2.5 1.5zM929 727c0 2-.5 3-1.5 3-.8 0-1.5.7-1.5 1.5s-.4 1.5-.9 1.5-1.2 1.3-1.6 3c-.4 1.6-1.3 3-2.1 3-1.7 0-2 7.5-.3 8.5 1.7 1.1 2.4-.3 2.3-4.6-.1-2.7.3-3.9 1.2-3.9.9 0 1.4-1.1 1.4-3 0-2 .5-3 1.5-3 .8 0 1.5-.7 1.5-1.5s.7-1.5 1.5-1.5c1 0 1.5-1 1.5-3s-.5-3-1.5-3-1.5 1-1.5 3zM909 734.5c0 .8.5 1.5 1 1.5.6 0 1-.7 1-1.5s-.4-1.5-1-1.5c-.5 0-1 .7-1 1.5zM935 740.5c0 1 1 1.5 3 1.5s3-.5 3-1.5-1-1.5-3-1.5-3 .5-3 1.5zM926 743.5c0 1 1 1.5 3 1.5s3-.5 3-1.5-1-1.5-3-1.5-3 .5-3 1.5zM944 746.5c0 .8-.7 1.5-1.5 1.5s-1.5.7-1.5 1.5c0 1-1 1.5-3 1.5s-3 .5-3 1.5c0 .8-.4 1.5-1 1.5-.5 0-1.9.8-3 1.7-2.4 2.1-2.7 6.3-.5 6.3.9 0 1.5-.9 1.5-2.5s.6-2.5 1.5-2.5c.8 0 1.5-.7 1.5-1.5 0-1 1-1.5 3-1.5 2.5 0 3 .4 3 2.5 0 1.6.6 2.5 1.5 2.5s1.5-.9 1.5-2.5-.6-2.5-1.5-2.5c-.8 0-1.5-.7-1.5-1.5s.7-1.5 1.5-1.5 1.5-.7 1.5-1.5c0-1 1-1.5 3-1.5s3 .5 3 1.5c0 1.7 1.6 2 2.5.4.4-.6-.2-1.9-1.4-3-2.4-2.3-7.1-2.6-7.1-.4zM953 752.6c0 .9.5 1.4 1.2 1.2 1.8-.6 2.1-2.8.4-2.8-.9 0-1.6.7-1.6 1.6zM932 764.5c0 .8.7 1.5 1.5 1.5s1.5-.7 1.5-1.5-.7-1.5-1.5-1.5-1.5.7-1.5 1.5zM950 764c0 .5 1.8 1 4 1s4-.5 4-1c0-.6-1.8-1-4-1s-4 .4-4 1zM945.8 765.7c-1.1.3-1.8 1.4-1.8 2.9s-.6 2.4-1.5 2.4c-1.2 0-1.5 1.3-1.5 6s.3 6 1.5 6c.8 0 1.5.7 1.5 1.5s.7 1.5 1.5 1.5 1.5.7 1.5 1.5c0 1 1 1.5 3.1 1.5 3.8 0 3.5-2.4-.4-2.8-1.5-.2-2.7-1-2.7-1.8s-.7-1.4-1.5-1.4c-1.2 0-1.5-1.3-1.5-6s.3-6 1.5-6c.8 0 1.5-.7 1.5-1.5s.7-1.5 1.6-1.5c.9 0 1.4-.5 1.2-1.2-.5-1.4-1.7-1.7-4-1.1zM959 766.5c0 .8.7 1.5 1.5 1.5s1.5.9 1.5 2c0 2.1 1.5 2.7 2.5 1 .6-1-3.3-5.9-4.7-6-.5 0-.8.7-.8 1.5zM965 776.5c0 4.3 1.1 5.8 2.5 3.4.9-1.4-.4-7.9-1.5-7.9-.6 0-1 2-1 4.5zM970 802.5c0 .8-.4 1.5-1 1.5-.5 0-1 .7-1 1.5s.5 1.5 1 1.5c.6 0 1-.7 1-1.5 0-1 1-1.5 2.9-1.5 2.5 0 3.1.5 3.6 3 .4 1.6.4 4.3 0 6-.5 2.3-.3 3 .9 3 1.3 0 1.6-1.2 1.6-6 0-4.7-.3-6-1.5-6-.8 0-1.5-.7-1.5-1.5 0-1-1-1.5-3-1.5s-3 .5-3 1.5zM737 968v161h103.5l-.3-156.9c-.2-139.4-.1-157.1 1.3-158.4.8-.9 1.5-2.7 1.5-4.1V807H737v161zM956 808.5c0 .8.7 1.5 1.5 1.5s1.5-.7 1.5-1.5-.7-1.5-1.5-1.5-1.5.7-1.5 1.5zM409 810.9c0 .5 1.2 1.2 2.7 1.6 1.5.3 3.1 1.1 3.4 1.7.3.5 2.5 1.2 4.8 1.5 2.5.4 4.1 1.1 4.1 1.9 0 .8 1.1 1.4 2.6 1.4 1.4 0 3.2.7 4 1.5.9.8 2.4 1.5 3.5 1.5 1 0 1.9.7 1.9 1.5 0 .9.9 1.5 2.5 1.5 1.4 0 2.5.5 2.5 1 0 .6.8 1.4 1.8 1.7.9.4 2.7 1.7 3.9 3 1.2 1.3 2.6 2.3 3.2 2.3.5 0 3.6 2.7 6.9 6 3.3 3.3 6.5 6 7.1 6 .6 0 1.1.7 1.1 1.5s.7 1.5 1.5 1.5 1.5.6 1.5 1.3c0 .7.9 2 2 3 1.1.9 2 2.4 2 3.2 0 .8.5 1.5 1 1.5.6 0 1 .7 1 1.5s.6 1.5 1.4 1.5c.8 0 1.7 1.3 2.1 3 .4 1.6 1.1 3 1.6 3s.9.7.9 1.5.7 1.5 1.5 1.5c1 0 1.5 1 1.5 3s.5 3 1.5 3 1.5 1 1.5 3 .5 3 1.5 3 1.5 1 1.5 3 .5 3 1.5 3c.9 0 1.5.9 1.5 2.5s.6 2.5 1.5 2.5c1 0 1.5 1 1.5 3s.5 3 1.5 3 1.5 1 1.5 3 .5 3 1.5 3 1.5 1 1.5 3 .5 3 1.5 3 1.5 1 1.5 3 .5 3 1.5 3 1.5 1 1.5 3 .5 3 1.5 3 1.5 1 1.5 3c0 1.6.4 3 .9 3s1.2 1.3 1.6 3c.4 1.6 1 3 1.5 3s1.1 1.3 1.5 3c.4 1.6 1 3 1.5 3s1.1 1.3 1.5 3c.4 1.6 1 3 1.5 3 .4 0 1 1.8 1.4 4 .3 2.2 1 4 1.5 4s1.2 1.3 1.6 3c.4 1.6 1 3 1.5 3s1.1 1.3 1.5 3c.4 1.6 1 3 1.5 3 .4 0 1.1 1.6 1.4 3.5.4 1.9 1.1 3.5 1.6 3.5.4 0 1.1 1.3 1.5 3 .4 1.6 1.1 3 1.6 3s.9 1.1.9 2.5.6 2.5 1.4 2.5c.8 0 1.5 1.6 1.9 4.1.3 2.3 1 4.5 1.5 4.8.6.3 1.4 1.9 1.7 3.4.4 1.5 1.1 2.7 1.6 2.7s.9 1.1.9 2.5.7 2.8 1.5 3.1c.8.4 1.5 1.7 1.5 3 0 1.4.7 2.7 1.5 3 .9.4 1.5 1.9 1.5 3.5 0 1.9.5 2.9 1.5 2.9s1.5 1 1.5 3 .5 3 1.5 3 1.5 1 1.5 3 .5 3 1.5 3c.9 0 1.5 1 1.5 2.6 0 1.4.7 3.2 1.5 4 .8.9 1.5 2.9 1.5 4.5 0 1.9.5 2.9 1.5 2.9s1.5 1 1.5 3 .5 3 1.5 3 1.5 1 1.5 3 .5 3 1.5 3 1.5 1 1.5 3 .5 3 1.5 3 1.5 1 1.5 3c0 1.6.4 3 1 3 .5 0 1.3 1.2 1.6 2.7.4 1.5 1.3 3.4 2.1 4.1.7.7 1.3 2 1.3 2.8 0 .9.7 2.2 1.5 3 .8.9 1.5 2.4 1.5 3.5 0 1 .4 1.9.9 1.9s1.2 1.3 1.6 3c.4 1.6 1 3 1.5 3s1.1 1.4 1.5 3c.4 1.7 1 3 1.5 3 .4 0 1.1 1.1 1.4 2.5.4 1.4 1.1 2.5 1.6 2.5.6 0 1 .7 1 1.5 0 .9.6 1.8 1.4 2.1.8.3 1.7 1.6 2 3 .4 1.3 1.1 2.4 1.6 2.4.6 0 1 .7 1 1.5s.6 1.5 1.4 1.5c.8 0 1.7 1.4 2.1 3 .4 1.7 1.1 3 1.6 3s.9.7.9 1.5.7 1.5 1.5 1.5 1.5.7 1.5 1.5.7 1.5 1.5 1.5 1.5.7 1.5 1.5c0 1 1 1.5 3 1.5s3 .5 3 1.5c0 1.6 2.8 1.9 6.8.9 1.5-.4 2.2-1.4 2.2-3 0-1.5.6-2.4 1.5-2.4 1.1 0 1.5-1.2 1.5-4.5s.4-4.5 1.5-4.5c1 0 1.5-1 1.5-2.9 0-1.6.5-3.1 1.1-3.3.5-.2 1.3-2.2 1.6-4.6.3-2.3.9-4.2 1.4-4.2.4 0 1.1-1.7 1.5-3.8.4-2 1.1-4 1.6-4.3.5-.3 1.2-2.5 1.5-4.8.3-2.2.9-4.1 1.4-4.1.4 0 1.1-1.6 1.5-3.5.3-1.9 1-3.5 1.5-3.5s1.2-1.8 1.5-4c.4-2.2 1-4 1.5-4 .4 0 1.1-2 1.5-4.5.3-2.5 1-4.5 1.4-4.5.5 0 1.1-1.3 1.5-3 .4-1.6 1-3 1.4-3 .5 0 1.1-1.9 1.4-4.2.3-2.4 1.1-4.4 1.6-4.6.6-.2 1.1-1.6 1.1-3.2s.7-3.5 1.5-4.4c2.3-2.2 2.4-11.9.2-14.1-.9-.9-1.7-2.3-1.7-3.1 0-.8-.4-1.4-.9-1.4s-1.2-1.4-1.6-3c-.4-1.7-1.1-3-1.6-3s-.9-.7-.9-1.5c0-.9-.6-1.8-1.4-2.1-.8-.3-1.8-1.9-2.1-3.5-.4-1.6-1.1-2.9-1.6-2.9s-.9-1.1-.9-2.5c0-1.6-.6-2.5-1.5-2.5-1 0-1.5-1-1.5-3 0-1.9-.5-3-1.4-3-.8 0-1.5-1.6-1.9-4.1-.3-2.3-1.1-4.5-1.7-4.9-.6-.4-1.4-2.6-1.7-4.9-.3-2.2-1-4.1-1.4-4.1-.5 0-.9-1.3-.9-2.9 0-1.6-.7-3.6-1.5-4.5-.8-.8-1.5-2.6-1.5-4.1 0-1.4-.7-2.8-1.5-3.1-1-.4-1.5-2-1.5-4.5 0-2.6-.5-4.2-1.5-4.5-1-.4-1.5-2-1.5-4.5 0-2.6-.5-4.2-1.5-4.5-1-.4-1.5-2-1.5-4.5 0-2.8-.4-3.9-1.5-3.9-1 0-1.5-1-1.5-3s-.5-3-1.5-3c-1.1 0-1.5-1.2-1.5-4.5s-.4-4.5-1.5-4.5c-1 0-1.5-1-1.5-3s-.5-3-1.5-3-1.5-1-1.5-3-.5-3-1.5-3c-.9 0-1.5-.9-1.5-2.4 0-1.3-.7-2.6-1.5-3-.8-.3-1.5-1.6-1.5-3 0-1.3-.7-2.6-1.5-3-.8-.3-1.5-1.6-1.5-3 0-1.3-.7-2.6-1.5-3-.8-.3-1.5-1.7-1.5-3.1 0-1.4-.4-2.5-.9-2.5s-1.2-1.4-1.6-3c-.4-1.7-1-3-1.5-3s-1.1-1.4-1.5-3c-.4-1.7-1-3-1.5-3s-1.1-1.4-1.5-3c-.4-1.7-1.3-3-2.1-3s-1.4-.7-1.4-1.5-.4-1.5-.9-1.5-1.2-1.4-1.6-3c-.4-1.7-1.3-3-2.1-3s-1.4-.5-1.4-1.1c0-.7-1.1-2.2-2.5-3.5-1.4-1.3-2.5-2.8-2.5-3.4 0-.5-.7-1-1.5-1s-1.5-.7-1.5-1.5-.7-1.5-1.5-1.5-1.5-.7-1.5-1.5-.5-1.5-1-1.5c-.6 0-2.1-1.1-3.4-2.5-1.3-1.4-2.8-2.5-3.5-2.5-.6 0-1.1-.6-1.1-1.4 0-.8-1.3-1.7-3-2.1-1.6-.4-3-1.1-3-1.6s-.7-.9-1.5-.9-1.5-.7-1.5-1.5c0-1-1-1.5-3-1.5-1.9 0-3-.5-3-1.4 0-.8-1.3-1.7-3-2.1-1.6-.4-3-1-3-1.5 0-.4-1.8-1-4-1.4-2.2-.3-4-1.1-4-1.6 0-.6-1.3-1-3-1-1.6 0-3.3-.6-3.7-1.4-.5-.8-3.2-1.5-7.1-1.8-3.5-.2-6.7-.9-7-1.5-.4-.5-5.2-1.3-10.7-1.6-5.6-.3-10.1-1-10.3-1.6-.5-1.4-83.2-1.5-83.2-.2zM965 817c0 1.6-.7 2-3 2-2 0-3-.5-3-1.5 0-.8-.7-1.5-1.5-1.5s-1.5.7-1.5 1.5.7 1.5 1.5 1.5 1.5.4 1.5.9 1 1.1 2.2 1.4c2.4.7 7.4-3.5 6.3-5.3-1-1.7-2.5-1.1-2.5 1zM983 824.6c0 1.7-.6 2.8-2 3.1-2.3.6-2.7 2.3-.6 2.3.7 0 1.6.9 1.9 2 1.1 4.3 2.7 1.9 2.7-4 0-3.3-.4-6-1-6-.5 0-1 1.2-1 2.6zM962 832c0 .6 3 1 7 1s7-.4 7-1-3-1-7-1-7 .4-7 1zM982.4 843.4c-.3.8-1.6 1.7-3 2-1.3.4-2.4 1.1-2.4 1.6 0 .6-.7 1-1.5 1-.9 0-1.8.7-2.1 1.5-.5 1.1-2.1 1.5-6 1.5-4.1 0-5.4.4-5.4 1.5 0 1.2 1.5 1.5 7.5 1.5h7.5v-3c0-2.5.4-3 2.5-3 1.6 0 2.5-.6 2.5-1.5 0-.8.7-1.5 1.5-1.5s1.5-.7 1.5-1.5c0-1.9-1.9-2-2.6-.1zM979 855.5c0 1 1 1.5 3 1.5s3 .5 3 1.5c0 .8.7 1.5 1.5 1.5s1.5-.7 1.5-1.5-.7-1.5-1.5-1.5-1.5-.7-1.5-1.5c0-1-1-1.5-3-1.5s-3 .5-3 1.5zM965 864.5c0 .8-.7 1.5-1.5 1.5-1.1 0-1.5 1.2-1.5 4.5 0 2.5.5 4.5 1 4.5.6 0 1-1 1-2.3 0-4.9 1.1-6.7 4.1-6.7 1.9 0 2.9-.5 2.9-1.5s-1-1.5-3-1.5-3 .5-3 1.5zM962 885c0 2.7.5 5 1 5 .6 0 1-.8 1-1.9 0-1 .3-3.3.6-5 .5-2.4.3-3.1-1-3.1s-1.6 1.1-1.6 5zM968 881.9c0 .5 1.2 1.1 2.8 1.3 2.2.2 2.8.8 3 3.5.4 4.1 2.2 4.3 2.2.3 0-2.9.2-3 4.5-3 4.5 0 4.5 0 5.1 4 .9 5.8 2.4 4.9 2.4-1.5V881h-10c-5.5 0-10 .4-10 .9zM456.7 951.6c-.8.9-.9 92-.1 95.1.7 2.6 3.4 3.2 3.4.8 0-.8.7-1.5 1.5-1.5 1.3 0 1.5-5.7 1.3-47.3l-.3-47.2-2.5-.3c-1.4-.2-2.9 0-3.3.4zM412.2 1128.7l.3 2.8 49.8.3c42.5.2 49.7 0 49.7-1.2 0-.8.3-2.1.6-3 .6-1.4-4.3-1.6-50.1-1.6h-50.6l.3 2.7z"/></svg>