<?xml version="1.0" standalone="no"?>
<!DOCTYPE svg PUBLIC "-//W3C//DTD SVG 20010904//EN"
 "http://www.w3.org/TR/2001/REC-SVG-20010904/DTD/svg10.dtd">
<svg version="1.0" xmlns="http://www.w3.org/2000/svg"
 width="256.000000pt" height="256.000000pt" viewBox="0 0 256.000000 256.000000"
 preserveAspectRatio="xMidYMid meet">

<g transform="translate(0.000000,256.000000) scale(0.100000,-0.100000)"
fill="#000000" stroke="none">
<path d="M1095 2545 c-532 -74 -962 -483 -1069 -1015 -19 -100 -30 -222 -22
-264 16 -85 114 -116 174 -56 27 26 31 39 37 107 11 132 25 214 50 290 125
371 423 638 801 718 176 37 421 16 591 -51 82 -32 212 -107 262 -151 l36 -32
-67 -1 c-61 0 -69 -3 -97 -31 -55 -55 -37 -142 36 -170 13 -5 110 -9 214 -9
283 0 279 -4 279 279 0 104 -4 201 -9 214 -28 72 -118 92 -172 38 -26 -27 -29
-36 -29 -96 l0 -67 -27 21 c-303 233 -635 326 -988 276z"/>
<path d="M2382 1350 c-27 -26 -31 -39 -37 -107 -11 -132 -25 -214 -50 -290
-125 -371 -423 -639 -801 -718 -113 -24 -303 -23 -424 3 -150 31 -300 98 -419
189 l-44 33 56 0 c101 0 147 34 147 108 0 35 -6 49 -29 73 l-29 29 -216 0
-216 0 -32 -29 -33 -29 -3 -200 c-3 -159 0 -207 12 -235 19 -46 65 -71 113
-62 53 10 81 46 89 116 6 56 15 71 29 49 11 -18 147 -106 220 -142 629 -317
1391 -62 1709 570 87 172 154 470 132 586 -16 85 -114 116 -174 56z"/>
</g>
</svg>
