<?xml version="1.0" standalone="no"?>
<!DOCTYPE svg PUBLIC "-//W3C//DTD SVG 20010904//EN"
 "http://www.w3.org/TR/2001/REC-SVG-20010904/DTD/svg10.dtd">
<svg version="1.0" xmlns="http://www.w3.org/2000/svg"
 width="260.000000pt" height="260.000000pt" viewBox="0 0 260.000000 260.000000"
 preserveAspectRatio="xMidYMid meet">
<metadata>
Created by potrace 1.14, written by Peter Selinger 2001-2017
</metadata>
<g transform="translate(0.000000,260.000000) scale(0.100000,-0.100000)"
fill="#000000" stroke="none">
<path d="M1586 2224 c-5 -13 -9 -14 -21 -4 -10 8 -15 9 -15 2 0 -6 5 -14 10
-17 6 -4 8 -10 6 -14 -3 -4 4 -13 15 -19 19 -12 19 -11 9 8 -9 16 -8 25 1 36
6 8 10 17 7 20 -3 3 -8 -3 -12 -12z"/>
<path d="M1626 2224 c-3 -9 -5 -30 -5 -47 1 -23 3 -26 6 -10 3 13 13 23 26 25
12 2 22 10 23 18 0 9 -1 10 -3 3 -5 -15 -43 -18 -43 -3 0 5 8 14 18 19 15 9
15 10 1 11 -9 0 -20 -7 -23 -16z"/>
<path d="M1483 2193 c8 -44 17 -56 37 -42 13 9 12 10 -2 5 -13 -4 -18 0 -18
13 0 11 3 21 8 24 4 2 1 2 -7 0 -9 -2 -12 3 -8 17 3 11 0 20 -5 20 -7 0 -8
-14 -5 -37z"/>
<path d="M1700 2223 c-1 -5 -2 -24 -4 -43 -2 -19 -1 -26 1 -16 5 19 6 19 23
-4 l18 -24 -5 27 c-3 15 -9 24 -13 22 -17 -10 -20 14 -4 29 14 15 14 16 0 16
-9 0 -16 -3 -16 -7z"/>
<path d="M1410 2216 c0 -2 7 -7 16 -10 8 -3 12 -2 9 4 -6 10 -25 14 -25 6z"/>
<path d="M1743 2199 c-2 -23 3 -25 10 -4 4 8 3 16 -1 19 -4 3 -9 -4 -9 -15z"/>
<path d="M1772 2178 c-6 -23 -9 -44 -7 -46 2 -2 9 15 15 38 6 23 9 44 7 46 -2
3 -9 -14 -15 -38z"/>
<path d="M1391 2193 c-1 -17 5 -22 27 -25 29 -3 29 -24 0 -22 -9 0 -15 -3 -12
-8 8 -13 41 -9 47 6 7 17 -11 36 -34 36 -10 0 -20 8 -22 18 -4 13 -5 12 -6 -5z"/>
<path d="M1806 2194 c-4 -9 -2 -22 4 -29 5 -6 6 -16 2 -20 -4 -5 -2 -5 4 -2 6
3 9 20 6 37 -5 34 -7 36 -16 14z"/>
<path d="M1852 2149 c-17 -16 -32 -32 -32 -36 0 -3 11 4 25 17 27 25 32 21 15
-11 -6 -10 -7 -19 -2 -19 8 0 37 69 30 75 -1 2 -18 -10 -36 -26z"/>
<path d="M1786 2145 c-3 -8 -1 -15 4 -15 6 0 10 7 10 15 0 8 -2 15 -4 15 -2 0
-6 -7 -10 -15z"/>
<path d="M1897 2131 c-9 -16 -17 -35 -16 -43 0 -7 4 -3 9 9 6 16 15 21 27 17
13 -4 14 -3 5 3 -7 5 -10 17 -6 26 10 26 0 20 -19 -12z"/>
<path d="M1937 2149 c7 -7 15 -10 18 -7 3 3 -2 9 -12 12 -14 6 -15 5 -6 -5z"/>
<path d="M1963 2118 c-4 -7 -14 -24 -21 -37 -11 -21 -10 -22 4 -10 12 10 17
10 23 1 5 -9 12 -8 27 2 15 12 17 19 8 32 -14 23 -30 28 -41 12z m34 -13 c7
-20 -2 -29 -21 -22 -9 4 -13 13 -10 22 8 19 23 19 31 0z"/>
<path d="M1965 2040 c3 -5 8 -10 11 -10 2 0 4 5 4 10 0 6 -5 10 -11 10 -5 0
-7 -4 -4 -10z"/>
<path d="M2053 2021 c-32 -16 -32 -17 -10 -26 14 -7 21 -18 19 -30 -1 -12 5
-7 17 15 21 36 26 61 14 59 -5 -1 -23 -9 -40 -18z m37 2 c-1 -18 -19 -35 -29
-28 -9 5 -7 11 6 21 21 16 23 16 23 7z"/>
<path d="M2110 1950 c-20 -39 -20 -41 -3 -36 10 3 30 8 46 12 15 3 27 10 27
15 0 6 -8 5 -19 -1 -11 -5 -27 -10 -36 -10 -16 0 -16 2 0 26 9 14 14 28 11 31
-2 3 -14 -14 -26 -37z"/>
<path d="M2163 1900 c-35 -21 -41 -34 -21 -46 8 -5 9 -2 5 9 -8 21 12 34 25
16 8 -11 9 -10 5 3 -7 20 16 31 32 15 9 -9 11 -8 6 6 -9 22 -13 21 -52 -3z"/>
<path d="M2186 1844 c-26 -26 -14 -75 19 -74 5 0 2 5 -7 11 -22 12 -23 42 -2
60 20 17 49 0 48 -29 0 -12 3 -19 8 -16 14 9 9 30 -10 47 -23 21 -36 21 -56 1z"/>
<path d="M2260 1715 c-7 -8 -10 -18 -7 -22 4 -3 9 2 13 11 9 23 22 20 27 -6 5
-21 5 -21 4 1 -2 30 -19 37 -37 16z"/>
<path d="M1482 1596 c1 -62 -2 -118 -6 -124 -4 -7 -4 -12 1 -12 9 0 9 -280 0
-304 -4 -9 -3 -16 1 -16 8 0 7 -402 -1 -424 -4 -9 -2 -18 2 -20 9 -6 7 -49 -3
-64 -3 -6 0 -12 7 -14 16 -5 336 -2 342 4 3 2 5 247 5 544 l1 539 -175 2 -174
2 0 -113z"/>
<path d="M2217 1704 c-10 -10 12 -44 28 -44 8 0 15 4 15 10 0 5 -7 7 -15 4
-13 -6 -20 6 -16 29 1 9 -4 9 -12 1z"/>
<path d="M364 1693 c2 -3 10 -6 18 -7 70 -12 195 -114 233 -191 11 -22 26 -48
34 -57 8 -10 11 -18 7 -18 -4 0 1 -12 11 -27 11 -16 38 -68 60 -118 23 -49 53
-117 68 -150 16 -33 61 -129 101 -214 41 -84 74 -156 75 -160 0 -3 17 -31 37
-61 36 -52 84 -91 97 -78 10 9 125 328 125 345 0 8 -8 27 -18 41 -27 39 -70
137 -91 207 -33 108 -134 308 -182 360 -38 41 -99 86 -124 92 -5 1 -30 10 -55
19 -35 13 -85 17 -223 19 -98 1 -176 0 -173 -2z"/>
<path d="M2309 1651 c-3 -7 -23 -17 -44 -22 l-40 -8 43 3 c49 5 56 9 50 28 -4
10 -6 10 -9 -1z"/>
<path d="M2295 1576 c-11 -7 -28 -15 -39 -17 -11 -2 0 -8 27 -15 25 -5 44 -6
41 -2 -3 4 -12 8 -20 8 -19 0 -18 10 4 26 23 18 12 18 -13 0z"/>
<path d="M2243 1503 c-3 -8 -3 -17 1 -20 3 -4 6 0 6 9 0 11 10 14 40 13 22 -1
38 1 35 4 -13 12 -77 7 -82 -6z"/>
<path d="M2242 1450 c0 -14 2 -19 5 -12 2 6 2 18 0 25 -3 6 -5 1 -5 -13z"/>
<path d="M2281 1438 c1 -19 2 -20 6 -5 3 13 11 17 24 14 10 -3 19 -1 19 4 0 5
-11 9 -25 9 -20 0 -25 -5 -24 -22z"/>
<path d="M528 1218 c-7 -21 -2 -317 5 -325 4 -3 9 -4 12 -1 9 9 6 321 -3 330
-6 6 -11 4 -14 -4z"/>
<path d="M397 632 c-27 -5 -19 -22 11 -23 104 -4 303 -1 309 4 3 4 3 10 0 14
-7 6 -289 11 -320 5z"/>
</g>
</svg>
