<?xml version="1.0" standalone="no"?>
<!DOCTYPE svg PUBLIC "-//W3C//DTD SVG 20010904//EN"
 "http://www.w3.org/TR/2001/REC-SVG-20010904/DTD/svg10.dtd">
<svg version="1.0" xmlns="http://www.w3.org/2000/svg"
 width="512.000000pt" height="512.000000pt" viewBox="0 0 512.000000 512.000000"
 preserveAspectRatio="xMidYMid meet">

<g transform="translate(0.000000,512.000000) scale(0.100000,-0.100000)"
fill="#000000" stroke="none">
<path d="M2420 5114 c-322 -40 -590 -171 -815 -398 -198 -200 -313 -415 -372
-696 -24 -118 -24 -382 0 -500 58 -280 179 -505 376 -701 200 -199 416 -315
702 -376 117 -25 381 -25 499 0 287 62 495 173 696 372 204 202 319 415 381
706 25 117 25 381 0 499 -41 191 -109 355 -212 510 -64 96 -259 291 -355 355
-151 100 -332 176 -500 210 -74 15 -333 27 -400 19z"/>
<path d="M2035 2105 c-378 -46 -720 -194 -1010 -437 -432 -361 -681 -860 -711
-1423 -6 -111 -5 -124 15 -163 14 -28 34 -48 61 -62 39 -20 54 -20 2170 -20
2072 0 2132 1 2168 19 23 12 47 36 61 61 23 41 24 48 17 166 -26 488 -214 921
-552 1274 -324 337 -742 542 -1204 590 -136 14 -891 11 -1015 -5z"/>
</g>
</svg>
