<?xml version="1.0" standalone="no"?>
<!DOCTYPE svg PUBLIC "-//W3C//DTD SVG 20010904//EN"
 "http://www.w3.org/TR/2001/REC-SVG-20010904/DTD/svg10.dtd">
<svg version="1.0" xmlns="http://www.w3.org/2000/svg"
 width="500.000000pt" height="500.000000pt" viewBox="0 0 500.000000 500.000000"
 preserveAspectRatio="xMidYMid meet">

<g transform="translate(0.000000,500.000000) scale(0.100000,-0.100000)"
fill="#000000" stroke="none">
<path d="M2441 3189 c-125 -117 -301 -207 -509 -259 l-43 -11 3 -337 c3 -322
4 -340 27 -403 44 -125 154 -242 302 -319 84 -44 243 -100 283 -100 43 0 223
66 304 112 95 53 218 172 251 243 48 101 51 130 51 477 l0 327 -39 11 c-204
55 -357 131 -493 245 -42 36 -78 65 -80 65 -2 -1 -27 -23 -57 -51z m100 -85
c92 -99 247 -180 469 -243 l25 -8 3 -268 c3 -359 -12 -419 -138 -546 -52 -52
-88 -76 -171 -116 -57 -28 -134 -59 -170 -68 l-65 -17 -95 32 c-181 60 -307
151 -377 272 -29 51 -52 133 -52 186 0 36 3 43 18 40 10 -2 18 -14 20 -28 6
-66 27 -140 50 -184 54 -100 207 -205 375 -256 65 -20 69 -20 130 -4 160 44
319 151 382 258 47 81 55 139 55 418 0 250 -1 258 -20 258 -32 0 -206 66 -275
105 -60 33 -207 144 -220 166 -8 12 3 29 19 29 7 0 23 -12 37 -26z m-371 -230
c29 -12 46 -27 60 -55 24 -46 25 -59 4 -102 -21 -44 -61 -67 -116 -67 -50 0
-89 31 -109 88 -16 47 18 114 69 136 47 19 44 19 92 0z m630 -196 c0 -5 -33
-62 -73 -126 -90 -143 -124 -197 -177 -284 -22 -38 -47 -68 -54 -68 -21 0
-179 198 -172 215 10 28 31 14 96 -65 36 -43 68 -78 72 -77 4 1 43 61 87 132
127 207 165 267 179 281 13 14 42 9 42 -8z"/>
</g>
</svg>
