<?xml version="1.0" standalone="no"?>
<!DOCTYPE svg PUBLIC "-//W3C//DTD SVG 20010904//EN"
 "http://www.w3.org/TR/2001/REC-SVG-20010904/DTD/svg10.dtd">
<svg version="1.0" xmlns="http://www.w3.org/2000/svg"
 width="500.000000pt" height="500.000000pt" viewBox="0 0 500.000000 500.000000"
 preserveAspectRatio="xMidYMid meet">

<g transform="translate(0.000000,500.000000) scale(0.100000,-0.100000)"
fill="#000000" stroke="none">
<path d="M2383 3475 c-52 -74 -45 -70 -92 -52 -63 26 -69 23 -86 -38 l-16 -54
-57 -3 -57 -3 -3 -56 -3 -57 -44 -12 c-60 -17 -66 -27 -49 -75 20 -57 18 -61
-26 -92 -22 -15 -40 -34 -40 -42 0 -7 14 -31 31 -52 l31 -39 -31 -39 c-17 -21
-31 -46 -31 -54 0 -8 18 -26 40 -41 44 -29 46 -34 26 -91 -17 -47 -11 -56 52
-74 l42 -12 0 -52 c0 -29 5 -58 10 -63 10 -10 -8 -77 -126 -450 -46 -145 -50
-169 -35 -178 5 -3 56 9 112 28 120 38 106 44 170 -71 36 -66 59 -87 73 -65 3
5 39 136 81 291 78 290 86 309 138 327 20 6 87 -39 87 -59 0 -7 41 -137 90
-289 73 -224 94 -278 108 -278 12 0 31 25 57 74 61 116 46 110 165 70 87 -28
106 -32 118 -21 10 11 10 20 1 43 -22 57 -101 281 -148 419 -42 124 -47 147
-43 207 l4 67 48 12 c27 7 52 19 54 26 3 8 -1 33 -9 56 -8 23 -15 45 -15 48 0
4 18 19 40 34 22 15 40 34 40 42 0 8 -11 31 -25 51 -14 20 -25 40 -25 45 0 5
11 23 25 41 34 45 32 62 -15 91 -45 29 -45 26 -25 80 8 22 14 45 15 52 0 7
-25 20 -55 29 l-55 18 0 58 0 58 -59 0 -59 0 -12 51 c-7 28 -18 53 -26 56 -7
3 -34 -3 -60 -13 l-47 -18 -16 24 c-9 13 -26 35 -37 49 l-21 25 -41 -32 c-22
-18 -44 -32 -49 -32 -5 0 -27 13 -49 30 -21 16 -42 30 -46 30 -4 0 -15 -11
-25 -25z m73 -70 c41 -32 55 -31 94 2 l32 26 36 -42 37 -43 43 17 c24 10 44
16 46 14 2 -2 10 -24 18 -49 15 -45 15 -45 66 -48 l52 -3 0 -42 c0 -54 6 -63
58 -76 47 -13 47 -13 27 -70 -16 -46 -19 -39 44 -89 l24 -19 -26 -35 c-34 -43
-33 -51 0 -95 27 -35 27 -36 8 -50 -64 -46 -66 -49 -50 -94 8 -23 15 -45 15
-49 0 -4 -19 -13 -42 -20 -52 -15 -58 -23 -58 -77 l0 -42 -52 -3 c-51 -3 -51
-3 -66 -48 -8 -25 -16 -47 -18 -49 -2 -2 -24 4 -50 14 -44 17 -46 17 -59 -1
-7 -11 -22 -30 -32 -43 l-20 -24 -35 26 c-43 34 -51 33 -95 0 l-35 -27 -18 24
c-52 70 -42 65 -94 45 -25 -10 -48 -16 -49 -14 -1 2 -9 24 -17 49 l-15 45 -52
3 -52 3 -3 51 c-3 51 -3 51 -48 66 -25 8 -46 16 -47 17 -2 1 4 23 14 50 18 53
18 52 -48 96 l-24 17 26 28 c41 45 42 60 6 100 l-32 37 25 16 c65 43 65 43 47
96 -10 27 -16 49 -14 50 1 1 22 9 47 17 45 15 45 15 48 66 l3 51 52 3 52 3 15
45 c8 25 15 46 16 48 1 2 23 -4 48 -12 26 -9 48 -16 50 -16 2 0 15 18 30 40
14 22 29 40 33 40 3 0 21 -11 39 -25z m-255 -980 c16 -63 28 -71 86 -51 l48
17 22 -28 c13 -15 23 -32 23 -38 0 -13 -31 -135 -60 -240 -12 -44 -32 -117
-44 -162 -12 -45 -25 -85 -28 -88 -3 -3 -22 23 -42 59 -24 43 -43 66 -55 66
-10 0 -51 -11 -91 -25 -41 -14 -77 -24 -81 -23 -4 2 8 50 26 108 18 58 47 152
65 210 73 239 73 240 97 240 19 0 25 -8 34 -45z m737 -170 c40 -115 84 -239
97 -274 14 -36 23 -66 21 -69 -3 -2 -38 8 -79 22 -42 14 -84 26 -95 26 -14 0
-30 -20 -58 -72 l-38 -73 -83 254 -83 253 21 34 c24 39 21 38 78 18 24 -8 50
-13 56 -10 7 2 18 28 25 56 11 47 15 51 38 48 24 -3 31 -17 100 -213z"/>
<path d="M2434 3196 c-66 -16 -114 -46 -163 -102 -96 -109 -96 -279 1 -389 64
-73 116 -98 214 -103 71 -4 89 -1 135 20 78 36 114 71 151 145 26 54 32 77 32
132 0 195 -184 343 -370 297z m161 -65 c97 -44 155 -130 155 -231 -1 -208
-236 -323 -402 -197 -43 33 -86 110 -94 170 -14 99 53 214 149 257 55 24 140
25 192 1z"/>
</g>
</svg>
